<svg xmlns="http://www.w3.org/2000/svg" viewBox="0 0 220 220">
  <rect width="220" height="220" rx="40" fill="#0C1933"/>
  <g transform="translate(110,110)" fill="#E87722">
    <polygon points="0,-90 -8,-65 8,-65"/>
    <polygon points="0,90 -8,65 8,65"/>
    <polygon points="-90,0 -65,-8 -65,8"/>
    <polygon points="90,0 65,-8 65,8"/>
    <polygon points="-64,-64 -50,-50 -40,-60 -60,-40"/>
    <polygon points="64,64 50,50 40,60 60,40"/>
    <polygon points="-64,64 -50,50 -40,60 -60,40"/>
    <polygon points="64,-64 50,-50 40,-60 60,-40"/>
  </g>
  <circle cx="110" cy="110" r="55" fill="none" stroke="#E87722" stroke-width="6"/>
  <g transform="translate(110,110)" fill="none" stroke="#E87722" stroke-width="5">
    <polygon points="0,-30 26,0 0,30 -26,0"/>
  </g>
</svg>
